<?xml version="1.0" standalone="no"?>
<!DOCTYPE svg PUBLIC "-//W3C//DTD SVG 20010904//EN"
 "http://www.w3.org/TR/2001/REC-SVG-20010904/DTD/svg10.dtd">
<svg version="1.0" xmlns="http://www.w3.org/2000/svg"
 width="227.000000pt" height="227.000000pt" viewBox="0 0 227.000000 227.000000"
 preserveAspectRatio="xMidYMid meet">
<metadata>
Created by potrace 1.16, written by Peter Selinger 2001-2019
</metadata>
<g transform="translate(0.000000,227.000000) scale(0.100000,-0.100000)"
fill="#000000" stroke="none">
<path d="M1005 2170 c-119 -38 -221 -134 -267 -250 -13 -35 -23 -87 -26 -142
l-4 -88 -128 0 c-90 0 -131 -4 -138 -12 -14 -18 -103 -1558 -91 -1580 9 -17
57 -18 784 -18 727 0 775 1 784 18 12 22 -77 1562 -91 1580 -7 8 -48 12 -138
12 l-127 0 -5 88 c-4 53 -14 109 -27 142 -79 206 -314 317 -526 250z m252 -92
c41 -15 74 -38 114 -77 70 -70 99 -141 99 -241 l0 -70 -336 0 -336 0 4 88 c3
64 10 99 27 132 42 82 127 155 211 181 52 16 158 10 217 -13z m-549 -683 c2
-183 4 -212 19 -222 23 -17 30 -16 53 7 19 19 20 33 20 225 l0 205 335 0 335
0 0 -205 c0 -191 1 -206 20 -225 15 -15 25 -17 42 -11 23 8 23 11 28 222 l5
214 95 0 95 0 36 -640 c20 -352 39 -675 41 -717 l5 -78 -703 0 -704 0 5 43 c3
23 21 337 41 697 19 360 38 665 40 678 4 22 8 23 97 20 l92 -3 3 -210z"/>
</g>
</svg>
