<svg width="56" height="40" viewBox="0 0 56 40" fill="none" xmlns="http://www.w3.org/2000/svg">
<mask id="path-1-inside-1" fill="white">
<path d="M44.6882 12.7887H41.213L42.2601 0.870939C42.262 0.849349 42.2623 0.828081 42.2625 0.806813C42.2625 0.804996 42.2627 0.803285 42.2627 0.801469C42.2627 0.801148 42.2627 0.800935 42.2627 0.800614C42.2627 0.476243 42.0653 0.190348 41.7751 0.0660502C41.7727 0.0649815 41.7703 0.0636992 41.7678 0.0626304C41.7498 0.055149 41.7311 0.0487361 41.7124 0.0425372C41.7054 0.0402928 41.6987 0.0375139 41.6917 0.0353763C41.6764 0.0307806 41.6606 0.0271469 41.645 0.0234062C41.634 0.0208411 41.6234 0.0177419 41.6123 0.0156044C41.5986 0.0129325 41.5844 0.0112227 41.5704 0.00919206C41.5572 0.00726828 41.5443 0.00502354 41.531 0.00384789C41.5288 0.00363414 41.5267 0.00320629 41.5245 0.00299254C41.5102 0.00171001 41.4962 0.00192383 41.4821 0.00138945C41.4726 0.00106882 41.4633 0 41.4539 0H41.4437C41.4429 0 41.442 0 41.4412 0H24.9059C24.4595 0 24.0973 0.359106 24.0973 0.801575C24.0973 1.24298 24.4595 1.60315 24.9059 1.60315H40.5725L38.9633 19.9191C38.9631 19.9205 38.9631 19.9219 38.9628 19.9233L38.5568 24.5448H10.4598L10.9298 19.7355H16.2795C16.7262 19.7355 17.0881 19.3766 17.0881 18.934C17.0881 18.4913 16.7262 18.1324 16.2795 18.1324H11.0865L12.0788 7.97963H20.5933C21.04 7.97963 21.4019 7.62074 21.4019 7.17806C21.4019 6.73537 21.04 6.37648 20.5933 6.37648H12.2356L12.7022 1.60315H21.6715C22.1167 1.60315 22.4801 1.24298 22.4801 0.801575C22.4801 0.359106 22.1167 0 21.6715 0H11.9683C11.9679 0 11.9676 0.000106818 11.9671 0.000106818C11.5873 -5.87142e-08 11.2578 0.265055 11.1782 0.632497C11.1776 0.635169 11.1766 0.637734 11.1761 0.640406C11.172 0.660392 11.1693 0.680805 11.1666 0.701325C11.1659 0.707845 11.1645 0.714044 11.1638 0.720563C11.1637 0.721846 11.1634 0.723021 11.1633 0.724304L10.6108 6.37648H0.808597C0.361928 6.37648 0 6.73537 0 7.17806C0 7.62074 0.361928 7.97963 0.808597 7.97963H10.4541L9.46177 18.1324H6.5768C6.13014 18.1324 5.76821 18.4913 5.76821 18.934C5.76821 19.3766 6.13014 19.7355 6.5768 19.7355H9.30512L8.76476 25.2633C8.76465 25.2642 8.76465 25.265 8.76454 25.2658L7.9291 33.8137C7.92899 33.8146 7.92889 33.8157 7.92878 33.8165L7.92845 33.8196C7.92738 33.8308 7.92748 33.8417 7.92684 33.8528C7.92608 33.8675 7.92457 33.882 7.92457 33.8969C7.92457 33.8976 7.92468 33.8982 7.92468 33.8989C7.92468 33.9196 7.92619 33.9399 7.9277 33.9602C7.92835 33.9667 7.92813 33.9733 7.92889 33.9797C7.93104 34.0005 7.9346 34.0209 7.93837 34.0412C7.93945 34.0472 7.93999 34.0533 7.94118 34.0592C7.9443 34.0745 7.94872 34.0894 7.95282 34.1045C7.95562 34.115 7.95789 34.1258 7.96112 34.1362C7.96209 34.1391 7.96339 34.1419 7.96425 34.1449C8.00338 34.2641 8.0698 34.3712 8.15648 34.4587C8.1581 34.4603 8.15939 34.4621 8.16101 34.4636C8.16963 34.4721 8.17901 34.4798 8.18807 34.4879C8.24381 34.5386 8.30677 34.5816 8.37566 34.6152C8.39 34.6223 8.40413 34.6297 8.41879 34.6357C8.42321 34.6377 8.42795 34.639 8.43248 34.6407C8.45275 34.6487 8.47313 34.6564 8.49415 34.6629C8.49609 34.6634 8.49792 34.6638 8.49986 34.6644C8.5238 34.6714 8.54795 34.6776 8.57264 34.6827C8.57587 34.6833 8.57921 34.6835 8.58234 34.6842C8.60584 34.6885 8.62945 34.6923 8.6535 34.6946C8.65404 34.6946 8.65447 34.6947 8.65501 34.6949C8.68153 34.6974 8.70783 34.6987 8.73393 34.6987C8.73425 34.6987 8.73468 34.6986 8.73511 34.6986H12.3348C12.7323 37.6861 15.316 40 18.4367 40C21.5571 40 24.1408 37.6861 24.5383 34.6986H37.5081C37.9057 37.6861 40.4894 40 43.6099 40C46.7303 40 49.3143 37.6861 49.7119 34.6986H53.3124C53.313 34.6986 53.3136 34.6987 53.3141 34.6987C53.3411 34.6987 53.3676 34.6971 53.3939 34.6945C53.3987 34.6941 53.4032 34.6931 53.4079 34.6926C53.429 34.6902 53.4499 34.6873 53.4704 34.6832C53.4792 34.6815 53.4877 34.6791 53.4964 34.6771C53.5123 34.6735 53.5283 34.6696 53.5438 34.665C53.5543 34.6619 53.5646 34.6583 53.5749 34.6548C53.5882 34.6503 53.6015 34.6456 53.6145 34.6403C53.6257 34.636 53.6364 34.6312 53.6473 34.6263C53.6591 34.6209 53.671 34.6153 53.6825 34.6095C53.6935 34.6039 53.7041 34.5981 53.7147 34.5921C53.7258 34.5857 53.7368 34.5791 53.7477 34.5723C53.7578 34.5659 53.7679 34.5593 53.7776 34.5525C53.7886 34.5449 53.7991 34.5369 53.8098 34.5288C53.8186 34.5218 53.8275 34.515 53.8362 34.5077C53.8473 34.4984 53.8577 34.4887 53.8683 34.4787C53.8756 34.4718 53.8833 34.465 53.8904 34.4577C53.9016 34.4464 53.9123 34.4344 53.923 34.4223C53.9287 34.4158 53.9346 34.4095 53.9401 34.4029C53.952 34.3883 53.9627 34.3734 53.9735 34.3583C53.9772 34.3531 53.9813 34.3481 53.9848 34.3428C53.998 34.3232 54.0104 34.3032 54.0218 34.2824C54.0227 34.2811 54.0235 34.28 54.0241 34.2786C54.0363 34.2563 54.0475 34.2336 54.0575 34.2101C54.0603 34.2033 54.0625 34.1964 54.0652 34.1896C54.0717 34.1731 54.0782 34.1565 54.0837 34.1393C54.0873 34.1282 54.0899 34.1168 54.093 34.1055C54.0965 34.0922 54.1003 34.0789 54.1033 34.0653C54.106 34.0533 54.1077 34.0409 54.1098 34.0286C54.1116 34.0178 54.114 34.0072 54.1154 33.9962C54.1497 33.7239 54.7829 28.688 55.0657 25.4316C55.066 25.4285 55.0661 25.4253 55.0664 25.4222C55.1478 24.4835 55.2 23.6931 55.2 23.2091C55.2 17.4633 50.4845 12.7887 44.6882 12.7887ZM41.0721 14.392H44.3801L43.9576 19.201H40.6496L41.0721 14.392ZM18.4369 38.3967C15.9338 38.3967 13.8974 36.3781 13.8974 33.8968C13.8974 31.4156 15.9339 29.3969 18.4369 29.3969C20.9399 29.3969 22.9762 31.4156 22.9762 33.8968C22.9762 36.3781 20.9399 38.3967 18.4369 38.3967ZM43.6099 38.3967C41.1069 38.3967 39.0707 36.3781 39.0707 33.8968C39.0707 31.4156 41.107 29.3969 43.6099 29.3969C46.113 29.3969 48.1494 31.4156 48.1494 33.8968C48.1494 36.3781 46.113 38.3967 43.6099 38.3967ZM52.5979 33.0949H49.7121C49.3147 30.1072 46.7309 27.7932 43.6101 27.7932C40.4896 27.7932 37.9057 30.1073 37.5083 33.0949H24.5387C24.1413 30.1072 21.5575 27.7932 18.4369 27.7932C15.3162 27.7932 12.7323 30.1073 12.3349 33.0949H9.62403L10.3031 26.1475H39.2978V26.1479C39.2982 26.1479 39.2986 26.1479 39.299 26.1479C39.3261 26.1479 39.3529 26.1464 39.3794 26.1438C39.3844 26.1433 39.3892 26.1423 39.3942 26.1416C39.4153 26.1392 39.4364 26.1362 39.4571 26.1321C39.466 26.1303 39.4747 26.1278 39.4836 26.1257C39.4997 26.1218 39.5159 26.1181 39.5317 26.1134C39.5424 26.1102 39.5527 26.1063 39.5631 26.1027C39.5767 26.098 39.5903 26.0934 39.6035 26.0881C39.6148 26.0835 39.6257 26.0783 39.6367 26.0732C39.6486 26.0678 39.6606 26.0623 39.6721 26.0563C39.6831 26.0506 39.6939 26.0444 39.7048 26.0382C39.7159 26.0317 39.7269 26.0252 39.7377 26.0184C39.7481 26.0117 39.7581 26.0046 39.7681 25.9975C39.7788 25.9901 39.7891 25.9824 39.7995 25.9744C39.8087 25.967 39.8179 25.9594 39.827 25.9516C39.8372 25.9428 39.8472 25.9338 39.8569 25.9246C39.8651 25.9167 39.8733 25.9087 39.8813 25.9005C39.891 25.8905 39.9004 25.8801 39.9096 25.8695C39.9169 25.8612 39.924 25.8528 39.9309 25.8443C39.9398 25.8331 39.9484 25.8215 39.9568 25.8099C39.9631 25.8011 39.9693 25.7923 39.9753 25.7834C39.9832 25.7713 39.9907 25.7589 39.9979 25.7463C40.0034 25.7369 40.0091 25.7275 40.014 25.7178C40.0208 25.7052 40.0266 25.6924 40.0328 25.6795C40.0375 25.6691 40.0424 25.659 40.0467 25.6483C40.052 25.6357 40.0564 25.6227 40.061 25.6098C40.065 25.5984 40.0692 25.5869 40.0728 25.5752C40.0763 25.5628 40.0792 25.5501 40.0825 25.5374C40.0856 25.5247 40.0891 25.5121 40.0915 25.4992C40.094 25.4866 40.0955 25.4737 40.0975 25.4609C40.0994 25.4477 40.1017 25.4346 40.103 25.4212C40.1032 25.4192 40.1036 25.4174 40.1037 25.4155L40.509 20.8038H44.688C47.1655 20.8038 48.2828 22.0762 49.4656 23.4235C50.4417 24.5352 51.5313 25.7755 53.3836 26.078C53.1483 28.5437 52.7681 31.7089 52.5979 33.0949ZM53.5218 24.4717C52.3202 24.2288 51.5809 23.3915 50.6853 22.3714C49.5653 21.0959 48.1979 19.5392 45.5766 19.2491L45.9949 14.488C50.282 15.1165 53.5828 18.7875 53.5828 23.2093C53.5828 23.5098 53.5602 23.9463 53.5218 24.4717Z"/>
</mask>
<path d="M44.6882 12.7887H41.213L42.2601 0.870939C42.262 0.849349 42.2623 0.828081 42.2625 0.806813C42.2625 0.804996 42.2627 0.803285 42.2627 0.801469C42.2627 0.801148 42.2627 0.800935 42.2627 0.800614C42.2627 0.476243 42.0653 0.190348 41.7751 0.0660502C41.7727 0.0649815 41.7703 0.0636992 41.7678 0.0626304C41.7498 0.055149 41.7311 0.0487361 41.7124 0.0425372C41.7054 0.0402928 41.6987 0.0375139 41.6917 0.0353763C41.6764 0.0307806 41.6606 0.0271469 41.645 0.0234062C41.634 0.0208411 41.6234 0.0177419 41.6123 0.0156044C41.5986 0.0129325 41.5844 0.0112227 41.5704 0.00919206C41.5572 0.00726828 41.5443 0.00502354 41.531 0.00384789C41.5288 0.00363414 41.5267 0.00320629 41.5245 0.00299254C41.5102 0.00171001 41.4962 0.00192383 41.4821 0.00138945C41.4726 0.00106882 41.4633 0 41.4539 0H41.4437C41.4429 0 41.442 0 41.4412 0H24.9059C24.4595 0 24.0973 0.359106 24.0973 0.801575C24.0973 1.24298 24.4595 1.60315 24.9059 1.60315H40.5725L38.9633 19.9191C38.9631 19.9205 38.9631 19.9219 38.9628 19.9233L38.5568 24.5448H10.4598L10.9298 19.7355H16.2795C16.7262 19.7355 17.0881 19.3766 17.0881 18.934C17.0881 18.4913 16.7262 18.1324 16.2795 18.1324H11.0865L12.0788 7.97963H20.5933C21.04 7.97963 21.4019 7.62074 21.4019 7.17806C21.4019 6.73537 21.04 6.37648 20.5933 6.37648H12.2356L12.7022 1.60315H21.6715C22.1167 1.60315 22.4801 1.24298 22.4801 0.801575C22.4801 0.359106 22.1167 0 21.6715 0H11.9683C11.9679 0 11.9676 0.000106818 11.9671 0.000106818C11.5873 -5.87142e-08 11.2578 0.265055 11.1782 0.632497C11.1776 0.635169 11.1766 0.637734 11.1761 0.640406C11.172 0.660392 11.1693 0.680805 11.1666 0.701325C11.1659 0.707845 11.1645 0.714044 11.1638 0.720563C11.1637 0.721846 11.1634 0.723021 11.1633 0.724304L10.6108 6.37648H0.808597C0.361928 6.37648 0 6.73537 0 7.17806C0 7.62074 0.361928 7.97963 0.808597 7.97963H10.4541L9.46177 18.1324H6.5768C6.13014 18.1324 5.76821 18.4913 5.76821 18.934C5.76821 19.3766 6.13014 19.7355 6.5768 19.7355H9.30512L8.76476 25.2633C8.76465 25.2642 8.76465 25.265 8.76454 25.2658L7.9291 33.8137C7.92899 33.8146 7.92889 33.8157 7.92878 33.8165L7.92845 33.8196C7.92738 33.8308 7.92748 33.8417 7.92684 33.8528C7.92608 33.8675 7.92457 33.882 7.92457 33.8969C7.92457 33.8976 7.92468 33.8982 7.92468 33.8989C7.92468 33.9196 7.92619 33.9399 7.9277 33.9602C7.92835 33.9667 7.92813 33.9733 7.92889 33.9797C7.93104 34.0005 7.9346 34.0209 7.93837 34.0412C7.93945 34.0472 7.93999 34.0533 7.94118 34.0592C7.9443 34.0745 7.94872 34.0894 7.95282 34.1045C7.95562 34.115 7.95789 34.1258 7.96112 34.1362C7.96209 34.1391 7.96339 34.1419 7.96425 34.1449C8.00338 34.2641 8.0698 34.3712 8.15648 34.4587C8.1581 34.4603 8.15939 34.4621 8.16101 34.4636C8.16963 34.4721 8.17901 34.4798 8.18807 34.4879C8.24381 34.5386 8.30677 34.5816 8.37566 34.6152C8.39 34.6223 8.40413 34.6297 8.41879 34.6357C8.42321 34.6377 8.42795 34.639 8.43248 34.6407C8.45275 34.6487 8.47313 34.6564 8.49415 34.6629C8.49609 34.6634 8.49792 34.6638 8.49986 34.6644C8.5238 34.6714 8.54795 34.6776 8.57264 34.6827C8.57587 34.6833 8.57921 34.6835 8.58234 34.6842C8.60584 34.6885 8.62945 34.6923 8.6535 34.6946C8.65404 34.6946 8.65447 34.6947 8.65501 34.6949C8.68153 34.6974 8.70783 34.6987 8.73393 34.6987C8.73425 34.6987 8.73468 34.6986 8.73511 34.6986H12.3348C12.7323 37.6861 15.316 40 18.4367 40C21.5571 40 24.1408 37.6861 24.5383 34.6986H37.5081C37.9057 37.6861 40.4894 40 43.6099 40C46.7303 40 49.3143 37.6861 49.7119 34.6986H53.3124C53.313 34.6986 53.3136 34.6987 53.3141 34.6987C53.3411 34.6987 53.3676 34.6971 53.3939 34.6945C53.3987 34.6941 53.4032 34.6931 53.4079 34.6926C53.429 34.6902 53.4499 34.6873 53.4704 34.6832C53.4792 34.6815 53.4877 34.6791 53.4964 34.6771C53.5123 34.6735 53.5283 34.6696 53.5438 34.665C53.5543 34.6619 53.5646 34.6583 53.5749 34.6548C53.5882 34.6503 53.6015 34.6456 53.6145 34.6403C53.6257 34.636 53.6364 34.6312 53.6473 34.6263C53.6591 34.6209 53.671 34.6153 53.6825 34.6095C53.6935 34.6039 53.7041 34.5981 53.7147 34.5921C53.7258 34.5857 53.7368 34.5791 53.7477 34.5723C53.7578 34.5659 53.7679 34.5593 53.7776 34.5525C53.7886 34.5449 53.7991 34.5369 53.8098 34.5288C53.8186 34.5218 53.8275 34.515 53.8362 34.5077C53.8473 34.4984 53.8577 34.4887 53.8683 34.4787C53.8756 34.4718 53.8833 34.465 53.8904 34.4577C53.9016 34.4464 53.9123 34.4344 53.923 34.4223C53.9287 34.4158 53.9346 34.4095 53.9401 34.4029C53.952 34.3883 53.9627 34.3734 53.9735 34.3583C53.9772 34.3531 53.9813 34.3481 53.9848 34.3428C53.998 34.3232 54.0104 34.3032 54.0218 34.2824C54.0227 34.2811 54.0235 34.28 54.0241 34.2786C54.0363 34.2563 54.0475 34.2336 54.0575 34.2101C54.0603 34.2033 54.0625 34.1964 54.0652 34.1896C54.0717 34.1731 54.0782 34.1565 54.0837 34.1393C54.0873 34.1282 54.0899 34.1168 54.093 34.1055C54.0965 34.0922 54.1003 34.0789 54.1033 34.0653C54.106 34.0533 54.1077 34.0409 54.1098 34.0286C54.1116 34.0178 54.114 34.0072 54.1154 33.9962C54.1497 33.7239 54.7829 28.688 55.0657 25.4316C55.066 25.4285 55.0661 25.4253 55.0664 25.4222C55.1478 24.4835 55.2 23.6931 55.2 23.2091C55.2 17.4633 50.4845 12.7887 44.6882 12.7887ZM41.0721 14.392H44.3801L43.9576 19.201H40.6496L41.0721 14.392ZM18.4369 38.3967C15.9338 38.3967 13.8974 36.3781 13.8974 33.8968C13.8974 31.4156 15.9339 29.3969 18.4369 29.3969C20.9399 29.3969 22.9762 31.4156 22.9762 33.8968C22.9762 36.3781 20.9399 38.3967 18.4369 38.3967ZM43.6099 38.3967C41.1069 38.3967 39.0707 36.3781 39.0707 33.8968C39.0707 31.4156 41.107 29.3969 43.6099 29.3969C46.113 29.3969 48.1494 31.4156 48.1494 33.8968C48.1494 36.3781 46.113 38.3967 43.6099 38.3967ZM52.5979 33.0949H49.7121C49.3147 30.1072 46.7309 27.7932 43.6101 27.7932C40.4896 27.7932 37.9057 30.1073 37.5083 33.0949H24.5387C24.1413 30.1072 21.5575 27.7932 18.4369 27.7932C15.3162 27.7932 12.7323 30.1073 12.3349 33.0949H9.62403L10.3031 26.1475H39.2978V26.1479C39.2982 26.1479 39.2986 26.1479 39.299 26.1479C39.3261 26.1479 39.3529 26.1464 39.3794 26.1438C39.3844 26.1433 39.3892 26.1423 39.3942 26.1416C39.4153 26.1392 39.4364 26.1362 39.4571 26.1321C39.466 26.1303 39.4747 26.1278 39.4836 26.1257C39.4997 26.1218 39.5159 26.1181 39.5317 26.1134C39.5424 26.1102 39.5527 26.1063 39.5631 26.1027C39.5767 26.098 39.5903 26.0934 39.6035 26.0881C39.6148 26.0835 39.6257 26.0783 39.6367 26.0732C39.6486 26.0678 39.6606 26.0623 39.6721 26.0563C39.6831 26.0506 39.6939 26.0444 39.7048 26.0382C39.7159 26.0317 39.7269 26.0252 39.7377 26.0184C39.7481 26.0117 39.7581 26.0046 39.7681 25.9975C39.7788 25.9901 39.7891 25.9824 39.7995 25.9744C39.8087 25.967 39.8179 25.9594 39.827 25.9516C39.8372 25.9428 39.8472 25.9338 39.8569 25.9246C39.8651 25.9167 39.8733 25.9087 39.8813 25.9005C39.891 25.8905 39.9004 25.8801 39.9096 25.8695C39.9169 25.8612 39.924 25.8528 39.9309 25.8443C39.9398 25.8331 39.9484 25.8215 39.9568 25.8099C39.9631 25.8011 39.9693 25.7923 39.9753 25.7834C39.9832 25.7713 39.9907 25.7589 39.9979 25.7463C40.0034 25.7369 40.0091 25.7275 40.014 25.7178C40.0208 25.7052 40.0266 25.6924 40.0328 25.6795C40.0375 25.6691 40.0424 25.659 40.0467 25.6483C40.052 25.6357 40.0564 25.6227 40.061 25.6098C40.065 25.5984 40.0692 25.5869 40.0728 25.5752C40.0763 25.5628 40.0792 25.5501 40.0825 25.5374C40.0856 25.5247 40.0891 25.5121 40.0915 25.4992C40.094 25.4866 40.0955 25.4737 40.0975 25.4609C40.0994 25.4477 40.1017 25.4346 40.103 25.4212C40.1032 25.4192 40.1036 25.4174 40.1037 25.4155L40.509 20.8038H44.688C47.1655 20.8038 48.2828 22.0762 49.4656 23.4235C50.4417 24.5352 51.5313 25.7755 53.3836 26.078C53.1483 28.5437 52.7681 31.7089 52.5979 33.0949ZM53.5218 24.4717C52.3202 24.2288 51.5809 23.3915 50.6853 22.3714C49.5653 21.0959 48.1979 19.5392 45.5766 19.2491L45.9949 14.488C50.282 15.1165 53.5828 18.7875 53.5828 23.2093C53.5828 23.5098 53.5602 23.9463 53.5218 24.4717Z" fill="black" stroke="black" stroke-width="2" mask="url(#path-1-inside-1)"/>
<path d="M6.70166 13.2886H10.6547C10.8293 13.2886 10.9633 13.4277 10.9633 13.5901C10.9633 13.7526 10.8293 13.8917 10.6547 13.8917H6.70166C6.52706 13.8917 6.39307 13.7526 6.39307 13.5901C6.39307 13.4277 6.52706 13.2886 6.70166 13.2886Z" fill="black" stroke="black"/>
<path d="M18.9717 33.8966C18.9717 32.5562 20.0738 31.4575 21.4365 31.4575C22.7993 31.4575 23.9014 32.5563 23.9014 33.8966C23.9014 35.237 22.7993 36.3357 21.4365 36.3357C20.0738 36.3357 18.9717 35.237 18.9717 33.8966ZM19.5889 33.8966C19.5889 34.9136 20.4214 35.7326 21.4365 35.7326C22.4516 35.7326 23.2842 34.9136 23.2842 33.8966C23.2842 32.8797 22.4517 32.0607 21.4365 32.0607C20.4214 32.0607 19.5889 32.8797 19.5889 33.8966Z" fill="black" stroke="black"/>
<path d="M44.145 33.8966C44.145 32.5562 45.2471 31.4575 46.6099 31.4575C47.9726 31.4575 49.0747 32.5563 49.0747 33.8966C49.0747 35.237 47.9726 36.3357 46.6099 36.3357C45.2471 36.3357 44.145 35.237 44.145 33.8966ZM44.7622 33.8966C44.7622 34.9136 45.5947 35.7326 46.6099 35.7326C47.6251 35.7326 48.4575 34.9136 48.4575 33.8966C48.4575 32.8797 47.6251 32.0607 46.6099 32.0607C45.5947 32.0607 44.7622 32.8797 44.7622 33.8966Z" fill="black" stroke="black"/>
</svg>
