<svg width="40" height="40" viewBox="0 0 40 40" fill="none" xmlns="http://www.w3.org/2000/svg">
<path d="M31.7585 33.6935V18.9768V17.7697L32.6121 18.6233L34.0914 20.1026C34.0914 20.1026 34.0914 20.1026 34.0914 20.1026C34.1481 20.1592 34.2399 20.1592 34.2966 20.1026L31.7585 33.6935ZM31.7585 33.6935H31.7463L31.7528 34.1999C31.7532 34.2365 31.7393 34.2718 31.7139 34.2982C31.7136 34.2985 31.7132 34.2989 31.7129 34.2992L26.5547 39.4574L26.9082 39.811L26.5546 39.4574C26.5273 39.4848 26.4904 39.5 26.4521 39.5L3.22623 39.5L3.22482 39.5C2.35848 39.5024 1.54287 39.0915 1.02934 38.3937C0.140264 37.1856 0.398941 35.4853 1.60709 34.5962L2.15631 34.1921L1.60571 33.7898C1.38123 33.6258 1.18348 33.428 1.01947 33.2036L1.01945 33.2035C0.140926 32.0013 0.403441 30.3145 1.60572 29.436L2.15632 29.0337L1.60707 28.6296C0.909259 28.1161 0.498299 27.3006 0.500819 26.4342C0.505178 24.9341 1.72473 23.7215 3.22478 23.7258H3.22623H7.74237H8.24237V23.2258V18.9768V17.7697L7.38881 18.6233L5.90951 20.1026C5.90949 20.1026 5.90947 20.1026 5.90946 20.1026C5.85278 20.1592 5.76098 20.1592 5.7043 20.1026C5.70428 20.1026 5.70426 20.1026 5.70425 20.1026L0.54306 14.9414L31.7585 33.6935ZM14.8392 7.09678C14.8392 6.90541 14.7544 6.72396 14.6075 6.6013C14.4615 6.47694 14.2667 6.4259 14.0785 6.46259L6.98172 7.75291L14.8392 7.09678ZM14.8392 7.09678C14.8395 7.13323 14.8403 7.16967 14.8417 7.20608M14.8392 7.09678L14.8417 7.20608M14.8417 7.20608L14.7727 7.22333L14.894 7.7084L15.3868 7.62403L14.8417 7.20608ZM39.4578 14.9414L34.2967 20.1026L0.543004 14.9413C0.486411 14.8846 0.486411 14.7928 0.543004 14.7362C0.543023 14.7361 0.543042 14.7361 0.54306 14.7361L6.99417 8.28499C6.99421 8.28495 6.99425 8.28491 6.99429 8.28487C7.01516 8.2641 7.04184 8.25016 7.07089 8.2449L7.07116 8.24485L14.1679 6.95452L14.168 6.95456L14.1742 6.95335C14.213 6.94578 14.2532 6.95632 14.2834 6.98199L14.2834 6.98201L14.287 6.98505C14.3201 7.01268 14.3392 7.0535 14.3391 7.09657L14.3392 7.10131C14.3413 7.33319 14.3621 7.56441 14.4012 7.79276L14.4921 8.32427L15.0153 8.19346L19.4766 7.07798L19.8553 6.98329V6.59291V5.80646C19.8553 5.72631 19.9203 5.6613 20.0005 5.6613C21.3455 5.6613 22.4359 4.5709 22.4359 3.22581C22.4359 1.88071 21.3455 0.790321 20.0005 0.790321C18.8267 0.790321 17.847 1.62056 17.6163 2.72581H17.3208C17.5208 1.65208 18.3532 0.780659 19.4553 0.555702C20.9303 0.254634 22.3701 1.2063 22.6712 2.68129C22.9723 4.1563 22.0206 5.59614 20.5456 5.89721L20.1456 5.97885V6.3871V6.59356V6.98399L20.5244 7.07864L24.9857 8.19348L25.5088 8.32419L25.5997 7.79276C25.6388 7.56441 25.6596 7.3332 25.6617 7.10131L25.6618 7.10131V7.09678C25.6618 7.08821 25.6625 7.07987 25.664 7.07185L25.6641 7.07137C25.6784 6.99246 25.754 6.94016 25.8329 6.95451L25.833 6.95452L32.9297 8.24485L32.93 8.2449C32.9591 8.25017 32.9859 8.26416 33.0067 8.28499L39.4579 14.7362C39.5144 14.7927 39.5145 14.8846 39.4579 14.9413C39.4579 14.9413 39.4579 14.9413 39.4578 14.9414ZM21.2074 6.21858L20.7668 6.10847L20.7001 6.3755C20.682 6.37952 20.6638 6.38338 20.6456 6.3871V6.59356L20.69 6.60465L20.7456 6.877C20.9148 6.84248 21.0789 6.79699 21.2374 6.74144L24.6202 7.58678C24.6183 7.59921 24.6162 7.61163 24.6141 7.62403L25.1069 7.7084L25.2281 7.22331L25.1592 7.20609C25.1606 7.16967 25.1614 7.13324 25.1618 7.09678L21.2074 6.21858ZM20.1217 7.27623L20.0005 7.24591L19.8792 7.27623L15.1876 8.44913L14.5396 8.61113L14.8776 9.18722C15.9399 10.998 17.9025 12.0876 20.0005 12.0325C22.0984 12.0876 24.061 10.998 25.1233 9.18722L25.4613 8.61113L24.8133 8.44913L20.1217 7.27623ZM26.5972 37.7975V39.0046L27.4508 38.151L30.4095 35.1923L31.2631 34.3388H30.056H27.0972H26.5972V34.8388V37.7975ZM33.8405 19.4413L34.194 19.7949L34.5476 19.4413L38.7966 15.1923L39.1502 14.8387L38.7965 14.4851L32.941 8.63219L32.8306 8.5218L32.677 8.49388L26.4834 7.36807L25.9765 7.27592L25.8996 7.78544C25.5205 10.2992 23.0593 12.3226 19.9992 12.3226C16.939 12.3226 14.4779 10.2992 14.0987 7.78544L14.0219 7.27592L13.5149 7.36807L7.32133 8.49388L7.16765 8.52182L7.0572 8.63227L1.20429 14.4852L0.850733 14.8387L1.20429 15.1923L5.45333 19.4413L5.80688 19.7949L6.16043 19.4413L9.86689 15.7349L10.072 15.94L8.67914 17.3329L8.53269 17.4794V17.6865V23.2258V23.7258H9.03269L17.4198 23.7258L17.4217 23.7258C18.289 23.7225 19.1058 24.1335 19.6199 24.8321L19.6199 24.8321C20.5091 26.0403 20.2504 27.7405 19.0422 28.6296L18.4929 29.0338L19.0436 29.4361C19.2681 29.6001 19.4659 29.7978 19.6299 30.0223L20.0336 29.7273L19.6299 30.0223C20.5083 31.2246 20.2458 32.9114 19.0435 33.7899L18.4894 34.1948L19.0447 34.5982C19.0644 34.6125 19.0841 34.6272 19.1038 34.6425C20.2762 35.5476 20.4929 37.2317 19.5879 38.4042L18.9661 39.2097H19.9837H25.8069H26.3069V38.7097V34.1936C26.3069 34.1135 26.3719 34.0484 26.4521 34.0484H30.9682H31.4682V33.5484V17.6865V17.4794L31.3218 17.3329L29.9289 15.94L30.134 15.7349L33.8405 19.4413ZM3.22623 24.0162C1.88113 24.0162 0.790743 25.1066 0.790743 26.4517C0.790743 27.7967 1.88112 28.8871 3.22623 28.8871H17.4198C18.7649 28.8871 19.8553 27.7968 19.8553 26.4517C19.8553 25.1066 18.7649 24.0162 17.4198 24.0162H3.22623ZM3.22623 29.1775C1.88113 29.1775 0.790743 30.2679 0.790743 31.613C0.790743 32.958 1.88112 34.0484 3.22623 34.0484H17.4198C18.7649 34.0484 19.8553 32.9581 19.8553 31.613C19.8553 30.2679 18.7649 29.1775 17.4198 29.1775H3.22623ZM16.1295 39.2097H17.4198C18.7649 39.2097 19.8553 38.1194 19.8553 36.7743C19.8553 35.4292 18.7649 34.3388 17.4198 34.3388H3.22623C1.88113 34.3388 0.790743 35.4292 0.790743 36.7743C0.790743 38.1194 1.88113 39.2097 3.22623 39.2097H16.1295Z" fill="black" stroke="black"/>
<path d="M3.08105 26.5965V26.3062H17.565V26.5965H3.08105Z" fill="black" stroke="black"/>
<path d="M3.08105 31.7581V31.4678H16.9198V31.7581H3.08105Z" fill="black" stroke="black"/>
<path d="M3.08105 36.9197V36.6294H16.9198V36.9197H3.08105Z" fill="black" stroke="black"/>
</svg>
